<?xml version="1.0" standalone="no"?>
<!DOCTYPE svg PUBLIC "-//W3C//DTD SVG 20010904//EN"
 "http://www.w3.org/TR/2001/REC-SVG-20010904/DTD/svg10.dtd">
<svg version="1.0" xmlns="http://www.w3.org/2000/svg"
 width="138.000000pt" height="138.000000pt" viewBox="0 0 138.000000 138.000000"
 preserveAspectRatio="xMidYMid meet">
<metadata>
Created by potrace 1.14, written by Peter Selinger 2001-2017
</metadata>
<g transform="translate(0.000000,138.000000) scale(0.100000,-0.100000)"
fill="#000000" stroke="none">
<path d="M598 1290 c-75 -13 -141 -38 -204 -76 -64 -38 -174 -140 -174 -161 0
-8 14 -13 39 -13 36 0 40 -3 51 -35 14 -43 23 -44 49 -6 31 43 134 108 208
131 159 49 338 0 448 -121 35 -40 55 -43 55 -11 0 22 58 -69 76 -120 7 -21 17
-60 22 -87 8 -42 7 -51 -7 -56 -14 -6 -14 -8 3 -21 20 -14 20 -14 0 -15 -17 0
-17 -1 -3 -11 29 -20 -8 -161 -65 -245 -16 -23 -26 -31 -26 -21 0 34 -20 27
-64 -20 -162 -174 -452 -175 -624 -4 -29 30 -55 52 -57 50 -2 -1 -10 -19 -19
-38 -9 -19 -14 -27 -11 -17 3 10 -13 55 -34 100 -45 93 -62 174 -40 188 12 8
12 11 -1 19 -10 6 -11 10 -2 10 16 0 16 27 0 32 -20 7 6 111 48 195 20 39 33
76 29 82 -10 17 -40 13 -58 -7 -28 -30 -68 -128 -79 -194 -6 -35 -18 -68 -26
-75 -12 -10 -13 -15 -2 -28 8 -10 9 -15 1 -15 -6 0 -11 -4 -11 -10 0 -5 7 -10
15 -10 10 0 15 -10 15 -33 0 -65 56 -211 95 -251 15 -15 15 -16 -4 -16 -30 0
-26 -20 14 -62 89 -94 179 -147 303 -179 167 -43 340 -6 487 103 63 47 129
120 118 132 -3 3 -15 6 -25 6 -17 0 -16 2 3 21 31 31 66 114 85 199 9 41 22
78 28 83 8 5 6 10 -4 17 -10 6 -11 10 -2 10 6 0 12 7 12 15 0 8 -4 15 -9 15
-5 0 -12 19 -16 43 -17 100 -81 241 -115 251 -8 2 -3 4 12 5 44 2 41 17 -15
74 -135 139 -343 209 -519 177z m502 -254 c0 -3 -4 -8 -10 -11 -5 -3 -10 -1
-10 4 0 6 5 11 10 11 6 0 10 -2 10 -4z m-848 -73 c-33 -56 -62 -136 -62 -172
0 -14 -5 -33 -11 -41 -17 -24 0 76 23 139 24 64 56 121 69 121 5 0 -4 -21 -19
-47z m902 -11 c31 -61 56 -147 55 -186 -1 -21 -6 -10 -15 34 -8 36 -29 94 -46
130 -18 36 -34 69 -36 74 -3 5 1 6 7 2 6 -4 22 -28 35 -54z m-964 -323 c0 -37
36 -138 65 -181 14 -21 21 -38 16 -38 -14 0 -56 74 -74 130 -20 60 -32 151
-18 130 6 -8 11 -27 11 -41z m1010 -39 c-13 -58 -62 -164 -81 -176 -6 -4 -10
-3 -7 2 2 5 18 39 36 75 18 37 38 95 45 130 6 35 13 55 15 44 3 -10 -1 -44 -8
-75z"/>
<path d="M340 830 c0 -93 1 -100 20 -100 17 0 20 7 20 40 0 22 5 40 10 40 6 0
10 -18 10 -40 0 -33 3 -40 20 -40 19 0 20 7 20 100 0 93 -1 100 -20 100 -17 0
-20 -7 -20 -45 0 -25 -4 -45 -10 -45 -5 0 -10 20 -10 45 0 38 -3 45 -20 45
-19 0 -20 -7 -20 -100z"/>
<path d="M450 830 c0 -93 1 -100 20 -100 19 0 20 7 20 100 0 93 -1 100 -20
100 -19 0 -20 -7 -20 -100z"/>
<path d="M510 830 c0 -93 1 -100 20 -100 16 0 20 7 20 35 0 23 5 35 13 35 23
0 47 35 47 67 0 38 -27 63 -68 63 l-32 0 0 -100z m60 36 c0 -14 -4 -28 -10
-31 -6 -4 -10 7 -10 24 0 17 5 31 10 31 6 0 10 -11 10 -24z"/>
<path d="M638 919 c-28 -16 -22 -62 12 -99 17 -18 30 -36 30 -41 0 -12 -17
-11 -25 1 -3 6 -15 10 -25 10 -16 0 -18 -4 -11 -22 12 -34 55 -46 81 -23 28
25 25 48 -10 88 -30 35 -38 57 -21 57 5 0 11 -5 13 -12 3 -7 12 -9 22 -5 17 7
17 9 3 30 -16 25 -44 32 -69 16z"/>
<path d="M730 910 c0 -11 7 -20 15 -20 12 0 15 -16 15 -80 0 -73 2 -80 20 -80
18 0 20 7 20 76 0 60 4 79 17 89 25 19 6 35 -43 35 -37 0 -44 -3 -44 -20z"/>
<path d="M840 830 l0 -100 45 0 c38 0 45 3 45 20 0 15 -7 20 -25 20 -18 0 -25
5 -25 20 0 13 7 20 20 20 11 0 20 7 20 15 0 8 -9 15 -20 15 -15 0 -20 7 -20
25 0 20 5 25 25 25 18 0 25 5 25 20 0 17 -7 20 -45 20 l-45 0 0 -100z"/>
<path d="M940 830 c0 -93 1 -100 20 -100 16 0 20 7 21 38 l2 37 10 -37 c7 -24
17 -38 27 -38 13 0 16 14 17 85 1 98 -8 115 -63 115 l-34 0 0 -100z m60 36 c0
-14 -4 -28 -10 -31 -6 -4 -10 7 -10 24 0 17 5 31 10 31 6 0 10 -11 10 -24z"/>
<path d="M349 658 c-1 -7 -1 -18 0 -25 1 -6 -13 -13 -31 -15 -41 -4 -42 -21
-2 -28 16 -3 30 -11 30 -18 1 -6 2 -16 3 -22 2 -17 49 -11 60 8 10 16 10 16
11 0 0 -10 4 -18 10 -18 5 0 14 8 19 18 9 14 10 15 11 1 0 -11 9 -16 30 -16
21 0 30 5 30 16 0 14 1 14 10 1 17 -28 95 -22 103 8 4 13 5 11 6 -5 1 -20 6
-23 41 -21 29 1 40 6 40 17 0 11 3 11 16 -5 11 -14 17 -16 21 -6 4 10 8 10 20
1 11 -10 19 -10 33 -1 12 7 21 8 25 2 11 -18 24 -10 28 18 l4 27 2 -27 c1 -30
18 -38 27 -13 6 14 8 13 20 -2 11 -15 16 -16 33 -6 13 8 22 9 26 3 11 -18 25
-10 25 15 0 15 6 25 14 25 8 0 17 6 19 13 4 10 6 10 6 0 1 -19 61 -17 61 2 0
10 -10 15 -29 15 -20 0 -30 6 -34 20 -6 25 -35 36 -56 23 -11 -7 -23 -7 -33
-2 -11 6 -21 4 -31 -6 -13 -13 -16 -13 -21 1 -8 21 -26 8 -27 -19 -1 -21 -2
-19 -15 22 -3 11 -8 11 -16 3 -7 -7 -17 -8 -29 -2 -12 7 -22 6 -32 -5 -13 -12
-17 -12 -26 -1 -7 9 -32 14 -61 14 l-50 1 0 -41 c0 -44 -14 -45 -15 -1 0 33
-28 52 -53 36 -12 -7 -24 -8 -36 -1 -32 18 -46 2 -47 -54 l-1 -53 -9 49 c-4
27 -12 53 -17 58 -15 15 -32 0 -32 -25 0 -12 -5 -29 -10 -37 -7 -11 -10 -6
-10 21 0 24 -5 39 -16 43 -25 10 -44 7 -45 -6z m341 -28 c0 -5 -4 -10 -10 -10
-5 0 -10 5 -10 10 0 6 5 10 10 10 6 0 10 -4 10 -10z m110 -55 c0 -3 -6 -3 -12
2 -7 4 -16 8 -20 8 -5 0 -8 3 -8 8 0 4 0 14 0 23 0 12 5 10 20 -9 11 -14 20
-28 20 -32z m30 34 c0 -18 -2 -19 -15 -5 -8 8 -15 17 -15 20 0 3 7 6 15 6 9 0
15 -9 15 -21z m107 -26 c-3 -10 -5 -2 -5 17 0 19 2 27 5 18 2 -10 2 -26 0 -35z
m-380 -5 c-3 -7 -5 -2 -5 12 0 14 2 19 5 13 2 -7 2 -19 0 -25z m137 8 c-6 -16
-24 -23 -24 -8 0 10 22 33 27 28 2 -2 1 -11 -3 -20z"/>
<path d="M557 448 c-4 -13 -6 -25 -6 -28 0 -8 71 -31 113 -36 37 -5 38 -4 34
20 -3 15 -1 26 3 26 5 0 9 -11 9 -25 0 -20 5 -25 24 -25 14 0 27 4 31 9 3 5
19 12 35 16 32 7 37 21 18 47 -12 15 -19 15 -62 4 -34 -9 -63 -10 -95 -4 -100
20 -98 20 -104 -4z"/>
</g>
</svg>
